<?xml version="1.0" encoding="UTF-8"?>
<svg width="8.4723" height="8.4723" enable-background="new 0 0 32 32" version="1.1" viewBox="0 0 8.4723473 8.4723473" xml:space="preserve" xmlns="http://www.w3.org/2000/svg" xmlns:cc="http://creativecommons.org/ns#" xmlns:dc="http://purl.org/dc/elements/1.1/" xmlns:rdf="http://www.w3.org/1999/02/22-rdf-syntax-ns#"><metadata><rdf:RDF><cc:Work rdf:about=""><dc:format>image/svg+xml</dc:format><dc:type rdf:resource="http://purl.org/dc/dcmitype/StillImage"/></cc:Work></rdf:RDF></metadata><g><g transform="translate(.0022981)"><path d="m0 1.6921v-1.6921h0.68161v3.3842h-0.68161z" stop-color="#000000" style="font-variation-settings:normal"/><path d="m2.703 1.6921v-1.6921h0.68161v3.3842h-0.68161z" stop-color="#000000" style="font-variation-settings:normal"/><path d="m1.6921 0h1.6921v0.68161h-3.3842v-0.68161z" stop-color="#000000" style="font-variation-settings:normal"/><path d="m1.6921 2.7025h1.6921v0.68161h-3.3842v-0.68161z" stop-color="#000000" style="font-variation-settings:normal"/></g><g transform="translate(5.0926 .0034472)"><path d="m0 1.6921v-1.6921h0.68161v3.3842h-0.68161z" stop-color="#000000" style="font-variation-settings:normal"/><path d="m2.703 1.6921v-1.6921h0.68161v3.3842h-0.68161z" stop-color="#000000" style="font-variation-settings:normal"/><path d="m1.6921 0h1.6921v0.68161h-3.3842v-0.68161z" stop-color="#000000" style="font-variation-settings:normal"/><path d="m1.6921 2.7025h1.6921v0.68161h-3.3842v-0.68161z" stop-color="#000000" style="font-variation-settings:normal"/></g><g transform="translate(0 5.087)"><path d="m0 1.6921v-1.6921h0.68161v3.3842h-0.68161z" stop-color="#000000" style="font-variation-settings:normal"/><path d="m2.703 1.6921v-1.6921h0.68161v3.3842h-0.68161z" stop-color="#000000" style="font-variation-settings:normal"/><path d="m1.6921 0h1.6921v0.68161h-3.3842v-0.68161z" stop-color="#000000" style="font-variation-settings:normal"/><path d="m1.6921 2.7025h1.6921v0.68161h-3.3842v-0.68161z" stop-color="#000000" style="font-variation-settings:normal"/></g><g transform="translate(5.0903 5.0904)"><path d="m0 1.6921v-1.6921h0.68161v3.3842h-0.68161z" stop-color="#000000" style="font-variation-settings:normal"/><path d="m2.703 1.6921v-1.6921h0.68161v3.3842h-0.68161z" stop-color="#000000" style="font-variation-settings:normal"/><path d="m1.6921 0h1.6921v0.68161h-3.3842v-0.68161z" stop-color="#000000" style="font-variation-settings:normal"/><path d="m1.6921 2.7025h1.6921v0.68161h-3.3842v-0.68161z" stop-color="#000000" style="font-variation-settings:normal"/></g></g></svg>
